<svg xmlns="http://www.w3.org/2000/svg" xmlns:xlink="http://www.w3.org/1999/xlink" width="52" height="52" viewBox="0 0 52 52"><defs><style>.a{fill:none;}.b{opacity:0.4;clip-path:url(#a);}.c{fill:#4d4d4d;}.d{fill:#fff;}</style><clipPath id="a"><rect class="a" width="52" height="52"/></clipPath></defs><g class="b"><circle class="c" cx="26" cy="26" r="26"/><g transform="translate(-484 -684)"><path class="d" d="M501.7,705.731h-3.217a.805.805,0,0,0-.8.8V721.01a.8.8,0,0,0,.8.8H501.7a.8.8,0,0,0,.8-.8V706.535A.805.805,0,0,0,501.7,705.731Z"/><path class="d" d="M514.115,705.731l.847-2.311c.584-1.6.206-4.033-1.416-4.9a2.778,2.778,0,0,0-1.86-.274,1.34,1.34,0,0,0-.82.614,3.345,3.345,0,0,0-.257,1.14,4.923,4.923,0,0,1-1.364,2.607c-1.249,1.218-5.127,4.731-5.127,4.731v12.867h13.4a33.924,33.924,0,0,0,3.71-10.03,2.453,2.453,0,0,0-.922-4.445C520.179,705.709,514.115,705.731,514.115,705.731Z"/></g></g></svg>