<svg xmlns="http://www.w3.org/2000/svg" xmlns:xlink="http://www.w3.org/1999/xlink" width="52" height="52" viewBox="0 0 52 52"><defs><style>.a{fill:none;}.b{clip-path:url(#a);}.c{fill:#cf5f64;}.d{fill:#fff;}</style><clipPath id="a"><rect class="a" width="52" height="52"/></clipPath></defs><g class="b"><circle class="c" cx="26" cy="26" r="26"/><g transform="translate(-374 -684)"><path class="d" d="M391.7,714.7h-3.217a.849.849,0,0,1-.8-.885V697.885a.848.848,0,0,1,.8-.885H391.7a.847.847,0,0,1,.8.885v15.928A.849.849,0,0,1,391.7,714.7Z"/><path class="d" d="M404.115,714.7l.847,2.543c.584,1.756.206,4.437-1.416,5.391a2.558,2.558,0,0,1-1.86.3,1.36,1.36,0,0,1-.82-.676,3.986,3.986,0,0,1-.257-1.254,5.617,5.617,0,0,0-1.364-2.869c-1.249-1.34-5.127-5.206-5.127-5.206V698.77h13.4c1.809,0,2.994,2.221,2.1,3.957a65848.2,65848.2,0,0,1,1.608,7.079c1.835,1.293,1.222,4.493-.922,4.892C410.179,714.722,404.115,714.7,404.115,714.7Z"/></g></g></svg>