<svg xmlns="http://www.w3.org/2000/svg" width="38" height="31.349" viewBox="0 0 38 31.349"><defs><style>.a{fill:#fff;}</style></defs><path class="a" d="M120.334,39.684a9.491,9.491,0,0,1,2.658-2.5,16.084,16.084,0,0,1,3.963-1.81,21.122,21.122,0,0,1,4.958-.946V32.7a7.965,7.965,0,0,1-2.952-3.164,9.286,9.286,0,0,1-1.223-4.6q0-1.958.1-3.653a8.236,8.236,0,0,1,.686-3,4.319,4.319,0,0,1,1.859-1.99,9.114,9.114,0,0,1,7.241,0,4.322,4.322,0,0,1,1.858,1.99,8.236,8.236,0,0,1,.686,3q.1,1.7.1,3.653a9.286,9.286,0,0,1-1.223,4.6,7.965,7.965,0,0,1-2.952,3.164v1.728a21.122,21.122,0,0,1,4.958.946,16.083,16.083,0,0,1,3.963,1.81,9.5,9.5,0,0,1,2.658,2.5,5.773,5.773,0,0,1,.756,1.665,19,19,0,1,0-28.844,0A5.746,5.746,0,0,1,120.334,39.684Z" transform="translate(-115 -10)"/></svg>